<svg id="reg" enable-background="new 0 0 24 24" height="512" viewBox="0 0 24 24" width="512" xmlns="http://www.w3.org/2000/svg"><circle cx="12" cy="12" fill="#f44336" r="11.5"/><path d="m8.866 17.5c3.997 0 6.198-3.438 5.538-7h-5.697v2.203h3.489c-.136.876-1.008 2.587-3.329 2.587-2 0-3.633-1.695-3.633-3.79 0-3.385 3.888-4.914 5.97-2.865l1.592-1.563c-3.611-3.461-9.796-.87-9.796 4.428 0 3.315 2.625 6 5.866 6z" fill="#fff"/><path d="m15.089 10.396c-.198-1.075-1.411-.411-6.311-.613-.414 0-.75.336-.75.75v2.155c0 .414.336.75.75.75h2.346c-.512.776-1.494 1.078-2.354 1.013-1.218-.094-2.64-.92-2.64-2.94 0-2.67 3.011-3.797 4.563-2.268.293.287.761.288 1.052 0l1.558-1.529c.299-.294.302-.78-.007-1.077-4.012-3.845-10.851-.967-10.851 4.874 0 9.449 14.425 8.497 12.644-1.115zm-11.144 1.115c0-4.206 4.579-6.452 7.712-4.283l-.485.477c-2.583-1.731-6.541.122-6.541 3.806 0 2.834 2.086 4.286 4.024 4.436 1.861.141 3.927-.891 4.277-3.143.07-.457-.284-.865-.741-.865h-2.663v-.655h4.174c.714 6.986-9.757 7.184-9.757.227z"/><path d="m12 24c6.617 0 12-5.383 12-12s-5.383-12-12-12-12 5.383-12 12 5.383 12 12 12zm0-22.5c5.79 0 10.5 4.71 10.5 10.5s-4.71 10.5-10.5 10.5-10.5-4.71-10.5-10.5 4.71-10.5 10.5-10.5z"/><path d="m16.75 12.752h1.25v1.248c0 .993 1.5.992 1.5 0v-1.248h1.25c.993 0 .992-1.5 0-1.5h-1.25v-1.252c0-.993-1.5-.992-1.5 0v1.252h-1.25c-.993 0-.992 1.5 0 1.5z"/></svg>